<svg width="24" height="24" viewBox="0 0 24 24" fill="none" xmlns="http://www.w3.org/2000/svg">
<rect width="24" height="24" rx="2" fill="#383737"/>
<path d="M19.6344 17.8641L15.8938 14.1239C16.7444 12.8612 17.1641 11.2836 16.9394 9.60252C16.5563 6.74313 14.2125 4.41619 11.35 4.05383C7.09404 3.51535 3.51527 7.09372 4.05384 11.3492C4.41634 14.2126 6.74385 16.558 9.60386 16.9392C11.2851 17.1639 12.8632 16.7444 14.1258 15.8937L17.8664 19.6339C18.3545 20.122 19.1461 20.122 19.6342 19.6339C20.1219 19.1452 20.1219 18.3516 19.6344 17.8641V17.8641ZM6.47185 10.4993C6.47185 8.29391 8.26623 6.49972 10.4719 6.49972C12.6775 6.49972 14.4719 8.29391 14.4719 10.4993C14.4719 12.7047 12.6775 14.4989 10.4719 14.4989C8.26623 14.4989 6.47185 12.7053 6.47185 10.4993V10.4993Z" fill="#FCAEF6"/>
</svg>
