<svg width="24" height="24" viewBox="0 0 24 24" fill="none" xmlns="http://www.w3.org/2000/svg">
<g clip-path="url(#clip0_145_221)">
<rect width="24" height="24" rx="2" fill="black"/>
<path d="M3.89977 6.60129H8.39983V5.09827C8.42094 4.5221 8.66965 3.97781 9.09142 3.58471C9.5132 3.19162 10.0736 2.98179 10.6499 3.00124H13.3499C13.9261 2.98179 14.4866 3.19162 14.9083 3.58471C15.3301 3.97781 15.5788 4.5221 15.5999 5.09827V6.60129H20.1C20.3387 6.60129 20.5676 6.69611 20.7364 6.8649C20.9052 7.03368 21 7.2626 21 7.5013C21 7.74 20.9052 7.96892 20.7364 8.13771C20.5676 8.30649 20.3387 8.40131 20.1 8.40131H19.2V18.3014C19.2 19.0175 18.9155 19.7043 18.4092 20.2107C17.9028 20.717 17.216 21.0015 16.4999 21.0015H7.49982C6.78372 21.0015 6.09696 20.717 5.5906 20.2107C5.08425 19.7043 4.79978 19.0175 4.79978 18.3014V8.40131H3.89977C3.66107 8.40131 3.43215 8.30649 3.26336 8.13771C3.09458 7.96892 2.99976 7.74 2.99976 7.5013C2.99976 7.2626 3.09458 7.03368 3.26336 6.8649C3.43215 6.69611 3.66107 6.60129 3.89977 6.60129ZM13.7999 5.09827C13.7999 4.95427 13.6109 4.80126 13.3499 4.80126H10.6499C10.3889 4.80126 10.1999 4.95427 10.1999 5.09827V6.60129H13.7999V5.09827ZM6.5998 18.3014C6.5998 18.5401 6.69463 18.7691 6.86341 18.9379C7.0322 19.1066 7.26112 19.2015 7.49982 19.2015H16.4999C16.7386 19.2015 16.9676 19.1066 17.1363 18.9379C17.3051 18.7691 17.4 18.5401 17.4 18.3014V8.40131H6.5998V18.3014Z" fill="#FCAEF6"/>
<path d="M14.7001 16.5014C14.4614 16.5014 14.2325 16.4066 14.0637 16.2378C13.8949 16.069 13.8001 15.8401 13.8001 15.6014V12.0014C13.8001 11.7627 13.8949 11.5337 14.0637 11.365C14.2325 11.1962 14.4614 11.1013 14.7001 11.1013C14.9388 11.1013 15.1677 11.1962 15.3365 11.365C15.5053 11.5337 15.6001 11.7627 15.6001 12.0014V15.6014C15.6001 15.8401 15.5053 16.069 15.3365 16.2378C15.1677 16.4066 14.9388 16.5014 14.7001 16.5014ZM9.30001 16.5014C9.06131 16.5014 8.83239 16.4066 8.66361 16.2378C8.49482 16.069 8.4 15.8401 8.4 15.6014V12.0014C8.4 11.7627 8.49482 11.5337 8.66361 11.365C8.83239 11.1962 9.06131 11.1013 9.30001 11.1013C9.53871 11.1013 9.76763 11.1962 9.93642 11.365C10.1052 11.5337 10.2 11.7627 10.2 12.0014V15.6014C10.2 15.8401 10.1052 16.069 9.93642 16.2378C9.76763 16.4066 9.53871 16.5014 9.30001 16.5014Z" fill="#FCAEF6"/>
</g>
<defs>
<clipPath id="clip0_145_221">
<rect width="24" height="24" fill="white"/>
</clipPath>
</defs>
</svg>
