<svg width="16" height="16" viewBox="0 0 16 16" fill="none" xmlns="http://www.w3.org/2000/svg">
<rect x="0.5" y="0.5" width="15" height="15" rx="2.5" fill="#2C2C2C" stroke="black"/>
<path d="M11.54 3.58843C11.8297 3.25414 12.3253 3.19315 12.6875 3.4472C13.0761 3.7198 13.1715 4.25511 12.9011 4.64521L7.87828 11.8898C7.69145 12.1592 7.38439 12.32 7.05648 12.32H6.75488C6.43178 12.32 6.12859 12.1639 5.94091 11.9009L3.50947 8.49389C3.21794 8.08539 3.27435 7.52408 3.64132 7.18175L3.6575 7.16666C4.04181 6.80816 4.63804 6.80832 5.02215 7.16703L6.15154 8.22171C6.5658 8.60857 7.21846 8.57413 7.58971 8.14582L11.54 3.58843Z" fill="#FCAEF6"/>
</svg>
