<svg width="20" height="16" viewBox="0 0 20 16" fill="none" xmlns="http://www.w3.org/2000/svg">
<path d="M4.207 4.793C4.39447 4.98053 4.49979 5.23484 4.49979 5.5C4.49979 5.76516 4.39447 6.01947 4.207 6.207L3.414 7H7C7.26522 7 7.51957 7.10536 7.70711 7.29289C7.89464 7.48043 8 7.73478 8 8C8 8.26522 7.89464 8.51957 7.70711 8.70711C7.51957 8.89464 7.26522 9 7 9H3.414L4.207 9.793C4.38916 9.9816 4.48995 10.2342 4.48767 10.4964C4.4854 10.7586 4.38023 11.0094 4.19482 11.1948C4.00941 11.3802 3.7586 11.4854 3.4964 11.4877C3.23421 11.49 2.9816 11.3892 2.793 11.207L0.293 8.707C0.105999 8.52037 0.000632436 8.2672 4.47482e-07 8.003L4.47482e-07 7.997C-0.000123994 7.86611 0.0257074 7.7365 0.0760002 7.61566C0.126293 7.49482 0.200049 7.38515 0.293 7.293L2.793 4.793C2.98053 4.60553 3.23484 4.50021 3.5 4.50021C3.76516 4.50021 4.01947 4.60553 4.207 4.793ZM9 15C9 15.2652 9.10536 15.5196 9.29289 15.7071C9.48043 15.8946 9.73478 16 10 16C10.2652 16 10.5196 15.8946 10.7071 15.7071C10.8946 15.5196 11 15.2652 11 15V1C11 0.734783 10.8946 0.480429 10.7071 0.292892C10.5196 0.105356 10.2652 0 10 0C9.73478 0 9.48043 0.105356 9.29289 0.292892C9.10536 0.480429 9 0.734783 9 1V15ZM20 7.99C19.9977 7.72819 19.8925 7.47779 19.707 7.293L17.207 4.793C17.0184 4.61084 16.7658 4.51005 16.5036 4.51233C16.2414 4.5146 15.9906 4.61977 15.8052 4.80518C15.6198 4.99059 15.5146 5.2414 15.5123 5.5036C15.51 5.7658 15.6108 6.0184 15.793 6.207L16.586 7L13 7C12.7348 7 12.4804 7.10536 12.2929 7.29289C12.1054 7.48043 12 7.73478 12 8C12 8.26522 12.1054 8.51957 12.2929 8.70711C12.4804 8.89464 12.7348 9 13 9H16.586L15.793 9.793C15.6108 9.9816 15.51 10.2342 15.5123 10.4964C15.5146 10.7586 15.6198 11.0094 15.8052 11.1948C15.9906 11.3802 16.2414 11.4854 16.5036 11.4877C16.7658 11.49 17.0184 11.3892 17.207 11.207L19.707 8.707C19.8924 8.52172 19.9976 8.27107 20 8.009" fill="black"/>
</svg>
