<svg width="16" height="20" viewBox="0 0 16 20" fill="none" xmlns="http://www.w3.org/2000/svg">
<path d="M11.207 4.207C11.0195 4.39447 10.7652 4.49979 10.5 4.49979C10.2348 4.49979 9.98053 4.39447 9.793 4.207L9 3.414V7C9 7.26522 8.89464 7.51957 8.70711 7.70711C8.51957 7.89464 8.26522 8 8 8C7.73478 8 7.48043 7.89464 7.29289 7.70711C7.10536 7.51957 7 7.26522 7 7V3.414L6.207 4.207C6.0184 4.38916 5.7658 4.48995 5.5036 4.48767C5.2414 4.4854 4.99059 4.38023 4.80518 4.19482C4.61977 4.00941 4.5146 3.7586 4.51233 3.4964C4.51005 3.23421 4.61084 2.9816 4.793 2.793L7.293 0.293C7.47963 0.105999 7.7328 0.000632436 7.997 4.47482e-07H8.003C8.13389 -0.000123994 8.2635 0.0257074 8.38434 0.0760002C8.50518 0.126293 8.61485 0.200049 8.707 0.293L11.207 2.793C11.3945 2.98053 11.4998 3.23484 11.4998 3.5C11.4998 3.76516 11.3945 4.01947 11.207 4.207ZM1 9C0.734784 9 0.48043 9.10536 0.292893 9.29289C0.105357 9.48043 0 9.73478 0 10C0 10.2652 0.105357 10.5196 0.292893 10.7071C0.48043 10.8946 0.734784 11 1 11H15C15.2652 11 15.5196 10.8946 15.7071 10.7071C15.8946 10.5196 16 10.2652 16 10C16 9.73478 15.8946 9.48043 15.7071 9.29289C15.5196 9.10536 15.2652 9 15 9H1ZM8.01 20C8.27181 19.9977 8.52221 19.8925 8.707 19.707L11.207 17.207C11.3892 17.0184 11.49 16.7658 11.4877 16.5036C11.4854 16.2414 11.3802 15.9906 11.1948 15.8052C11.0094 15.6198 10.7586 15.5146 10.4964 15.5123C10.2342 15.51 9.9816 15.6108 9.793 15.793L9 16.586V13C9 12.7348 8.89464 12.4804 8.70711 12.2929C8.51957 12.1054 8.26522 12 8 12C7.73478 12 7.48043 12.1054 7.29289 12.2929C7.10536 12.4804 7 12.7348 7 13V16.586L6.207 15.793C6.0184 15.6108 5.7658 15.51 5.5036 15.5123C5.2414 15.5146 4.99059 15.6198 4.80518 15.8052C4.61977 15.9906 4.5146 16.2414 4.51233 16.5036C4.51005 16.7658 4.61084 17.0184 4.793 17.207L7.293 19.707C7.47828 19.8924 7.72893 19.9976 7.991 20" fill="black"/>
</svg>
